<svg width="546" height="524" viewBox="0 0 546 524" fill="none" xmlns="http://www.w3.org/2000/svg">
<g clip-path="url(#clip0_30_2)">
<path d="M429.564 504.424C431.63 504.553 432.771 501.987 431.208 500.491L431.053 499.872C431.073 499.823 431.094 499.774 431.115 499.724C433.204 494.742 440.285 494.777 442.356 499.766C444.195 504.194 446.535 508.63 447.112 513.312C447.37 515.379 447.254 517.484 446.795 519.512C451.103 510.102 453.37 499.826 453.37 489.491C453.37 486.895 453.228 484.298 452.938 481.709C452.699 479.59 452.369 477.484 451.943 475.398C449.637 464.121 444.644 453.38 437.443 444.409C433.981 442.516 431.094 439.558 429.35 436.012C428.723 434.733 428.233 433.357 428 431.956C428.394 432.008 429.486 426.007 429.188 425.639C429.737 424.806 430.72 424.392 431.32 423.579C434.302 419.535 438.411 420.241 440.556 425.736C445.138 428.049 445.183 431.884 442.371 435.573C440.582 437.92 440.336 441.095 438.767 443.608C438.928 443.814 439.096 444.015 439.258 444.221C442.219 448.019 444.78 452.101 446.939 456.39C446.329 451.624 447.23 445.882 448.765 442.18C450.513 437.963 453.79 434.411 456.676 430.765C460.142 426.386 467.249 428.297 467.86 433.849C467.866 433.902 467.871 433.956 467.877 434.01C467.448 434.252 467.029 434.508 466.618 434.78C464.279 436.327 465.087 439.954 467.859 440.381L467.922 440.391C467.767 441.935 467.502 443.466 467.115 444.97C470.817 459.286 462.825 464.5 451.413 464.735C451.162 464.864 450.916 464.993 450.664 465.116C451.82 468.371 452.744 471.71 453.429 475.095C454.042 478.085 454.468 481.108 454.707 484.143C455.005 487.974 454.979 491.823 454.656 495.647L454.675 495.511C455.495 491.3 457.782 487.366 461.102 484.641C466.047 480.578 473.035 479.082 478.37 475.817C480.938 474.245 484.229 476.276 483.781 479.254L483.759 479.396C482.965 479.719 482.19 480.094 481.441 480.514C481.012 480.755 480.592 481.012 480.182 481.284C477.843 482.831 478.651 486.457 481.423 486.885L481.486 486.895C481.531 486.901 481.57 486.908 481.615 486.914C480.252 490.15 478.353 493.154 475.977 495.744C473.662 508.241 463.72 509.426 453.086 505.787H453.08C451.917 510.851 450.218 515.798 448.035 520.513H430.015C429.951 520.313 429.892 520.106 429.834 519.906C431.501 520.01 433.18 519.913 434.821 519.609C433.484 517.969 432.147 516.315 430.81 514.675C430.777 514.642 430.751 514.61 430.726 514.578C430.047 513.738 429.363 512.905 428.685 512.065L428.684 512.064C428.642 509.487 428.951 506.918 429.563 504.424L429.564 504.424V504.424Z" fill="#F2F2F2"/>
<path d="M160 522.5C160 523.332 160.438 524 160.984 524H478.016C478.562 524 479 523.332 479 522.5C479 521.668 478.562 521 478.016 521H160.984C160.438 521 160 521.668 160 522.5V522.5Z" fill="#CCCCCC"/>
<path d="M437.086 0H151.126C140.636 0 132.106 8.52997 132.106 19.02V214.98C132.106 225.47 140.636 234 151.126 234H437.086C447.576 234 456.106 225.47 456.106 214.98V19.02C456.106 8.52997 447.576 0 437.086 0Z" fill="white"/>
<path d="M292.791 116.516C310.464 116.516 324.791 102.189 324.791 84.5157C324.791 66.8426 310.464 52.5157 292.791 52.5157C275.118 52.5157 260.791 66.8426 260.791 84.5157C260.791 102.189 275.118 116.516 292.791 116.516Z" fill="#70AD47"/>
<path d="M298.861 70.2359C294.9 70.3991 290.441 70.6502 287.444 73.598C284.962 76.0398 284.094 79.841 286.375 82.716C288.777 85.7431 292.77 86.3174 295.905 88.2518C297.853 89.4541 299.144 91.2754 299.186 93.6161C299.225 95.8075 298.214 97.8548 296.523 99.2283C292.375 102.598 286.718 101.203 282.794 98.2561C282.022 97.6763 281.273 98.9779 282.037 99.5513C285.287 101.992 289.472 103.41 293.516 102.359C297.238 101.393 300.237 98.4644 300.64 94.5513C301.065 90.4271 298.357 87.6188 294.846 86.0078C291.636 84.5352 286.007 82.9662 286.538 78.3913C287.212 72.5747 294.333 71.9224 298.861 71.7358C299.823 71.6962 299.828 70.196 298.861 70.2358V70.2359Z" fill="white"/>
<path d="M291.977 67.5157L291.798 108.674C291.793 109.639 293.293 109.64 293.298 108.674L293.477 67.5157C293.482 66.5504 291.982 66.5491 291.977 67.5157Z" fill="white"/>
<path d="M437.086 0H151.126C140.636 0 132.106 8.52997 132.106 19.02V214.98C132.106 225.47 140.636 234 151.126 234H437.086C447.576 234 456.106 225.47 456.106 214.98V19.02C456.106 8.52997 447.576 0 437.086 0ZM454.106 214.98C454.106 224.37 446.476 232 437.086 232H151.126C141.736 232 134.106 224.37 134.106 214.98V19.02C134.106 9.63001 141.736 2 151.126 2H437.086C446.476 2 454.106 9.63 454.106 19.02V214.98Z" fill="#3F3D56"/>
<path d="M261.136 19.35H233.076C231.666 19.35 230.516 20.5 230.516 21.91C230.516 23.33 231.666 24.48 233.076 24.48H261.136C262.546 24.48 263.696 23.33 263.696 21.91C263.696 20.5 262.546 19.35 261.136 19.35Z" fill="#E6E6E6"/>
<path d="M308.136 19.35H280.076C278.666 19.35 277.516 20.5 277.516 21.91C277.516 23.33 278.666 24.48 280.076 24.48H308.136C309.546 24.48 310.696 23.33 310.696 21.91C310.696 20.5 309.546 19.35 308.136 19.35Z" fill="#E6E6E6"/>
<path d="M355.136 19.35H327.076C325.666 19.35 324.516 20.5 324.516 21.91C324.516 23.33 325.666 24.48 327.076 24.48H355.136C356.546 24.48 357.696 23.33 357.696 21.91C357.696 20.5 356.546 19.35 355.136 19.35Z" fill="#E6E6E6"/>
<path d="M401.416 134.516H186.796C177.866 134.516 170.606 141.776 170.606 150.706V165.326C170.606 174.256 177.866 181.516 186.796 181.516H401.416C410.346 181.516 417.606 174.256 417.606 165.326V150.706C417.606 141.776 410.346 134.516 401.416 134.516Z" fill="#70AD47"/>
<path d="M413.27 239.748L412.746 280.587L402.584 316.993L394.461 313.963L398.068 280.593L397.594 235.436L413.27 239.748Z" fill="#FFB6B6"/>
<path d="M402.55 322.863C403.503 317.628 401.756 312.926 398.648 312.36C395.539 311.794 392.247 315.579 391.294 320.814C390.341 326.049 392.088 330.751 395.196 331.317C398.304 331.883 401.596 328.098 402.55 322.863Z" fill="#FFB6B6"/>
<path d="M400.94 191.122C400.94 191.122 418.347 191.361 418.332 200.608C418.324 205.829 417.203 253.232 414.083 282.028C411.676 304.235 407.083 310.028 407.083 310.028L396.083 285.028L400.94 191.122V191.122Z" fill="#E6E6E6"/>
<path d="M400.492 274.559H341.705C346.632 263.564 349.661 253.092 344.926 244.763L400.492 241.541C397.715 252.786 397.376 263.821 400.492 274.559Z" fill="#FFB6B6"/>
<path d="M393.244 177.117L369.89 175.506L360.227 187.586L355.328 188.476C347.984 189.812 342.754 196.365 343.082 203.822L344.988 247.135L400.809 251.205L414.182 194.803L398.076 188.391L393.244 177.117V177.117Z" fill="#E6E6E6"/>
<path d="M250.822 190.182C252.479 191.673 253.662 193.414 254.287 195.103L270.968 208.306L264.454 216.059L248.234 201.832C246.488 201.389 244.632 200.396 242.975 198.905C239.19 195.5 237.878 190.787 240.045 188.378C242.212 185.969 247.037 186.777 250.822 190.182L250.822 190.182Z" fill="#FFB6B6"/>
<path d="M368.759 201.297V201.297L304.843 244.457L259.026 212.573L265.905 200.113L301.965 221.069L335.22 195.535C347.062 184.412 361.903 186.568 368.759 201.297H368.759Z" fill="#E6E6E6"/>
<path d="M380.182 171.889C389.751 171.889 397.508 164.132 397.508 154.563C397.508 144.994 389.751 137.237 380.182 137.237C370.614 137.237 362.856 144.994 362.856 154.563C362.856 164.132 370.614 171.889 380.182 171.889Z" fill="#FFB6B6"/>
<path d="M403.732 150.306V153.666L384.192 148.166L369.542 151.236C369.372 149.006 368.712 146.816 367.612 144.876C368.378 147.988 368.464 150.395 367.652 151.636L365.682 152.046C365.362 151.176 364.742 150.416 363.932 149.956C363.852 149.906 363.752 149.866 363.662 149.896C363.522 149.946 363.512 150.126 363.512 150.266C363.533 151.006 363.552 151.746 363.582 152.486L357.923 153.666V150.306C352.492 138.088 366.804 127.516 380.833 127.406C387.162 127.357 392.882 129.966 397.033 134.106C401.173 138.256 403.732 143.976 403.732 150.306V150.306Z" fill="#2F2E41"/>
<path d="M414.725 189.705L413.249 189.582C413.354 189.1 413.459 188.623 413.555 188.141C414.373 184.091 412.573 178.936 412.441 175.045C411.746 179.156 412.934 184.213 411.705 188.116C411.568 188.55 406.229 191.349 406.083 191.776C400.173 189.615 394.019 182.71 387.051 186.743C382.93 189.128 378.227 188.083 373.548 186.991C372.39 186.721 372.229 181.001 371.083 180.776C369.03 180.374 366.015 185.573 364.083 185.776L372.083 154.776C372.083 137.912 370.52 120.219 391.883 126.182C397.255 127.682 402.573 128.857 406.538 133.292C410.504 137.732 413.327 143.938 414.327 151.005C414.931 155.268 418.695 169.744 414.725 189.705V189.705Z" fill="#2F2E41"/>
<path d="M400.93 501.441L391.393 501.666L386.078 458.822L400.151 458.489L400.93 501.441Z" fill="#FFB7B7"/>
<path d="M368.211 521.337C368.211 522.948 369.354 524.254 370.765 524.254H389.694C389.694 524.254 391.557 516.766 399.152 513.544L399.676 524.254H409.441L408.258 507.032C408.258 507.032 410.87 497.818 405.445 493.109C400.02 488.399 404.414 489.054 404.414 489.054L402.28 478.395L387.524 480.131L387.416 496.863L380.255 513.471L369.751 518.66C368.816 519.121 368.211 520.174 368.211 521.337H368.211H368.211Z" fill="#2F2E41"/>
<path d="M371.916 494.459L362.749 497.096L346.735 457.004L360.264 453.11L371.916 494.459Z" fill="#FFB7B7"/>
<path d="M345.317 522.006C345.726 523.565 347.163 524.538 348.528 524.18L366.837 519.377C366.837 519.377 366.739 511.661 373.267 506.617L376.492 516.844L385.938 514.366L380.423 498.008C380.423 498.008 380.612 488.433 374.169 485.254C367.727 482.075 372.143 481.594 372.143 481.594L367.374 471.825L353.542 477.248L357.683 493.46L354.97 511.342L346.128 519.026C345.341 519.71 345.022 520.881 345.317 522.006L345.317 522.006L345.317 522.006Z" fill="#2F2E41"/>
<path d="M395.082 272.028L401.082 274.028C410.463 291.354 414.441 314.362 413.914 342.106L403.256 466.718H385.819L373.059 327.896L350.559 380.001L367.021 466.718L350.559 468.396L317.401 378.224L340.493 273.423L395.082 272.028V272.028Z" fill="#2F2E41"/>
</g>
<defs>
<clipPath id="clip0_30_2">
<rect width="545.563" height="523.501" fill="white"/>
</clipPath>
</defs>
</svg>
